<svg xmlns="http://www.w3.org/2000/svg" viewBox="0 0 600 600" width="600" height="600" role="img" aria-label="Rib vault">
  <title>Rib vault</title>
  <rect width="600" height="600" fill="#1B2A45"/>
  <path d="M300,300 Q150,150 0,0 L600,0 Q450,150 300,300 Z" fill="#22355A"/>
  <path d="M300,300 Q450,150 600,0 L600,600 Q450,450 300,300 Z" fill="#2E4A7D"/>
  <path d="M300,300 Q450,450 600,600 L0,600 Q150,450 300,300 Z" fill="#22355A"/>
  <path d="M300,300 Q150,450 0,600 L0,0 Q150,150 300,300 Z" fill="#2E4A7D"/>
  <g stroke="#4A4239" stroke-width="18" fill="none" stroke-linecap="round">
    <path d="M0,0 Q300,216 600,600"/>
    <path d="M600,0 Q300,216 0,600"/>
    <path d="M300,0 Q384,300 300,600"/>
    <path d="M0,300 Q300,384 600,300"/>
  </g>
  <circle cx="300" cy="300" r="42" fill="#856512" stroke="#4A4239" stroke-width="14"/>

</svg>
